<svg width="358" height="102" viewBox="0 0 358 102" fill="none" xmlns="http://www.w3.org/2000/svg">
<path d="M61.1942 40.5329H20.8428V50.2269C21.0043 50.2269 21.1659 50.3077 21.3275 50.4693C21.489 50.6308 21.6304 50.7116 21.7516 50.7116C21.4284 50.7116 21.2467 50.6914 21.2063 50.651C21.2063 50.4491 24.2155 49.8028 30.2339 48.7122C32.4554 48.3083 34.6568 48.1064 36.8379 48.1064C45.9261 48.1064 51.7627 50.651 54.3477 55.7404C56.0846 59.1333 56.953 65.9797 56.953 76.2796V99.6059C56.1048 99.2827 52.8936 97.97 47.3196 95.6677C47.3196 94.3751 47.057 93.5471 46.5319 93.1836C44.3912 94.4357 42.6341 95.3849 41.2608 96.0312C36.8985 98.0912 31.8293 99.1212 26.0533 99.1212C18.0961 99.1212 11.9566 96.6169 7.63465 91.6083C5.53428 89.1848 4.48409 86.4785 4.48409 83.4896C4.48409 80.137 6.14016 76.8047 9.45228 73.4926C15.8746 67.0703 23.852 63.8592 33.3844 63.8592C39.1604 63.8592 43.8055 65.1921 47.3196 67.8579V62.2839C45.5423 60.0219 43.8055 58.5072 42.109 57.7398C40.453 56.9724 38.1708 56.629 35.2626 56.7098C28.7596 56.831 22.8018 58.0225 17.3893 60.2845C14.9658 61.2943 12.6028 62.2031 10.3005 63.0109V58.5274C10.8256 58.0831 11.593 57.4167 12.6028 56.528C12.7644 56.3261 12.8654 56.2049 12.9058 56.1645V40.5329H0.485308V33.2624H61.1942V40.5329ZM47.3196 78.8849C47.3196 77.1077 45.199 75.5122 40.9579 74.0985C37.4438 72.9271 34.5154 72.3414 32.1727 72.3414C23.65 72.3414 16.8238 75.4112 11.694 81.5508C9.63405 84.0147 8.60406 86.0342 8.60406 87.6095C9.45228 90.5581 12.7846 92.0324 18.601 92.0324C26.1139 92.0324 32.9805 90.1542 39.2008 86.3978C44.6133 83.126 47.3196 80.6217 47.3196 78.8849ZM120.207 40.5329H79.8552V50.2269C80.0167 50.2269 80.1783 50.3077 80.3399 50.4693C80.5014 50.6308 80.6428 50.7116 80.764 50.7116C80.4408 50.7116 80.2591 50.6914 80.2187 50.651C80.2187 50.4491 83.2279 49.8028 89.2462 48.7122C91.4678 48.3083 93.6691 48.1064 95.8503 48.1064C104.938 48.1064 110.775 50.651 113.36 55.7404C115.097 59.1333 115.965 65.9797 115.965 76.2796V99.6059C115.117 99.2827 111.906 97.97 106.332 95.6677C106.332 94.3751 106.069 93.5471 105.544 93.1836C103.404 94.4357 101.647 95.3849 100.273 96.0312C95.9109 98.0912 90.8417 99.1212 85.0657 99.1212C77.1085 99.1212 70.969 96.6169 66.647 91.6083C64.5467 89.1848 63.4965 86.4785 63.4965 83.4896C63.4965 80.137 65.1525 76.8047 68.4647 73.4926C74.887 67.0703 82.8643 63.8592 92.3968 63.8592C98.1728 63.8592 102.818 65.1921 106.332 67.8579V62.2839C104.555 60.0219 102.818 58.5072 101.121 57.7398C99.4654 56.9724 97.1832 56.629 94.275 56.7098C87.7719 56.831 81.8142 58.0225 76.4017 60.2845C73.9781 61.2943 71.6152 62.2031 69.3129 63.0109V58.5274C69.838 58.0831 70.6054 57.4167 71.6152 56.528C71.7768 56.3261 71.8778 56.2049 71.9182 56.1645V40.5329H59.4977V33.2624H120.207V40.5329ZM106.332 78.8849C106.332 77.1077 104.211 75.5122 99.9703 74.0985C96.4562 72.9271 93.5278 72.3414 91.185 72.3414C82.6624 72.3414 75.8362 75.4112 70.7064 81.5508C68.6464 84.0147 67.6164 86.0342 67.6164 87.6095C68.4647 90.5581 71.797 92.0324 77.6134 92.0324C85.1263 92.0324 91.9929 90.1542 98.2132 86.3978C103.626 83.126 106.332 80.6217 106.332 78.8849ZM195.214 33.2624L195.093 40.5329H188.913V52.1051C188.186 53.5592 186.489 56.629 183.824 61.3145L162.315 99.1212C158.72 99.1212 154.014 96.2736 148.198 90.5783C141.816 84.358 138.625 77.451 138.625 69.8573C138.625 65.9797 139.877 62.3647 142.382 59.0121C143.513 57.4773 144.078 56.3261 144.078 55.5586C144.078 54.1449 142.887 53.4381 140.503 53.4381C138.726 53.4381 137.01 54.1651 135.353 55.6192C134.748 56.1443 133.435 57.5782 131.415 59.921L123.599 52.8322C126.265 50.5703 128.871 49.1767 131.415 48.6516C132.667 48.3689 134.283 48.2275 136.262 48.2275C147.208 48.1064 152.682 53.943 152.682 65.7374C152.682 67.3127 152.5 69.6756 152.136 72.8261C151.813 75.9767 151.652 78.3396 151.652 79.9149C151.652 86.2968 152.783 89.7705 155.044 90.336C156.297 90.336 157.771 88.8011 159.467 85.7313L177.947 52.3475V40.5329H119.055V33.2624H195.214ZM257.862 40.5329H196.608V33.2624H257.862V40.5329ZM252.833 62.2839C252.833 64.667 251.399 67.353 248.531 70.342C246.108 72.8867 243.563 74.7851 240.897 76.0373L231.809 65.7374C234.556 65.495 237.161 64.4852 239.625 62.708C242.452 60.6884 243.866 58.3861 243.866 55.801C243.866 54.4277 242.977 53.2563 241.2 52.2869C239.665 51.3983 238.151 50.954 236.656 50.954C233.546 50.954 230.214 52.4485 226.659 55.4375C219.429 61.4962 215.814 68.2013 215.814 75.5526V101.242L204.181 95.183V50.3481H215.935V54.9528C217.672 53.2159 221.267 51.3983 226.72 49.4999C229.386 48.5709 232.132 48.1064 234.96 48.1064C240.816 48.1064 245.785 50.3481 249.864 54.8316C251.843 57.0127 252.833 59.4968 252.833 62.2839ZM277.31 26.9007C277.149 27.0622 276.684 27.143 275.917 27.143C275.271 27.143 274.705 27.0622 274.22 26.9007L270.282 18.8425C268.667 16.2978 266.465 14.5812 263.678 13.6926C260.931 12.7636 259.235 11.7538 258.589 10.6632C257.983 8.80516 256.812 5.95754 255.075 2.12032V0.726804H257.438C260.548 1.69621 263.072 2.60502 265.011 3.45325C268.202 4.86696 270.343 6.50283 271.433 8.36085C272.039 9.37064 272.968 11.9557 274.22 16.1161C275.392 20.0341 276.381 22.7605 277.189 24.2954C277.27 25.0225 277.31 25.8909 277.31 26.9007ZM280.885 40.5329H256.226V33.2624H280.885V40.5329ZM273.978 100.394L263.799 94.7589V47.9852H273.978V100.394ZM334.081 40.5329H303.424V89.306C303.424 90.6793 303.868 92.0122 304.757 93.3048C305.686 94.7185 306.817 95.4253 308.149 95.4253C314.168 95.4253 317.177 89.205 317.177 76.7643L329.355 83.7319C324.71 94.0318 317.52 99.1616 307.786 99.1212C302.131 99.0808 297.728 96.4957 294.578 91.366C293.205 89.1444 292.518 86.9229 292.518 84.7013V40.5329H279.855V33.2624H292.518V12.9049L303.424 20.4784V33.2624H334.081V40.5329ZM353.772 26.9007C353.61 27.0622 353.146 27.143 352.378 27.143C351.732 27.143 351.167 27.0622 350.682 26.9007L346.744 18.8425C345.128 16.2978 342.927 14.5812 340.14 13.6926C337.393 12.7636 335.697 11.7538 335.05 10.6632C334.445 8.80516 333.273 5.95754 331.536 2.12032V0.726804H333.899C337.009 1.69621 339.534 2.60502 341.473 3.45325C344.664 4.86696 346.804 6.50283 347.895 8.36085C348.501 9.37064 349.43 11.9557 350.682 16.1161C351.853 20.0341 352.843 22.7605 353.651 24.2954C353.732 25.0225 353.772 25.8909 353.772 26.9007ZM357.347 40.5329H332.687V33.2624H357.347V40.5329ZM350.44 100.394L340.261 94.7589V47.9852H350.44V100.394Z" fill="white"/>
</svg>
