<svg width="138" height="84" viewBox="0 0 138 84" fill="none" xmlns="http://www.w3.org/2000/svg">
<path d="M17.369 34.0073H7.13744L5.37945 39H1.19543L9.95023 14.5288H14.5913L23.3461 39H19.1269L17.369 34.0073ZM16.2438 30.7374L12.2708 19.3808L8.26256 30.7374H16.2438ZM34.1847 39.3164C32.6611 39.3164 31.2899 39.0469 30.071 38.5078C28.8756 37.9452 27.9262 37.1951 27.223 36.2575C26.5198 35.2965 26.1448 34.23 26.0979 33.058H30.2468C30.3171 33.8784 30.7039 34.5699 31.4071 35.1324C32.1337 35.6715 33.0361 35.9411 34.1144 35.9411C35.2395 35.9411 36.1068 35.7301 36.7162 35.3082C37.3491 34.8629 37.6655 34.3003 37.6655 33.6205C37.6655 32.8939 37.3139 32.3548 36.6107 32.0032C35.931 31.6516 34.841 31.2648 33.3409 30.8429C31.8876 30.4444 30.7039 30.0577 29.7897 29.6826C28.8756 29.3076 28.0786 28.7333 27.3988 27.9598C26.7425 27.1863 26.4144 26.1667 26.4144 24.9009C26.4144 23.8696 26.7191 22.932 27.3285 22.0881C27.938 21.2208 28.8052 20.5411 29.9304 20.0489C31.0789 19.5566 32.3915 19.3105 33.8683 19.3105C36.0716 19.3105 37.8413 19.8731 39.1774 20.9982C40.5369 22.0998 41.2635 23.6117 41.3573 25.5338H37.3491C37.2788 24.6665 36.9272 23.975 36.2943 23.4594C35.6614 22.9437 34.8058 22.6858 33.7276 22.6858C32.6728 22.6858 31.8641 22.8851 31.3016 23.2836C30.739 23.682 30.4577 24.2094 30.4577 24.8658C30.4577 25.3814 30.6453 25.8151 31.0203 26.1667C31.3953 26.5183 31.8524 26.7995 32.3915 27.0105C32.9307 27.198 33.7276 27.4441 34.7824 27.7489C36.1888 28.1239 37.3374 28.5107 38.2281 28.9091C39.1422 29.2842 39.9275 29.8467 40.5838 30.5968C41.2401 31.3469 41.58 32.3431 41.6034 33.5854C41.6034 34.6871 41.2987 35.6715 40.6893 36.5388C40.0798 37.4061 39.2125 38.0858 38.0874 38.5781C36.9858 39.0703 35.6848 39.3164 34.1847 39.3164ZM47.9737 17.0603C47.247 17.0603 46.6376 16.8142 46.1453 16.3219C45.6531 15.8297 45.407 15.2202 45.407 14.4936C45.407 13.767 45.6531 13.1575 46.1453 12.6653C46.6376 12.1731 47.247 11.9269 47.9737 11.9269C48.6769 11.9269 49.2746 12.1731 49.7668 12.6653C50.259 13.1575 50.5052 13.767 50.5052 14.4936C50.5052 15.2202 50.259 15.8297 49.7668 16.3219C49.2746 16.8142 48.6769 17.0603 47.9737 17.0603ZM49.9426 19.6269V39H45.9344V19.6269H49.9426ZM78.6566 19.3105C80.1802 19.3105 81.5398 19.6269 82.7352 20.2598C83.9541 20.8927 84.9034 21.8303 85.5831 23.0726C86.2863 24.3149 86.6379 25.8151 86.6379 27.5731V39H82.6649V28.1708C82.6649 26.4362 82.2312 25.1119 81.364 24.1977C80.4967 23.2601 79.313 22.7913 77.8128 22.7913C76.3127 22.7913 75.1172 23.2601 74.2265 24.1977C73.3592 25.1119 72.9256 26.4362 72.9256 28.1708V39H68.9525V28.1708C68.9525 26.4362 68.5189 25.1119 67.6516 24.1977C66.7843 23.2601 65.6006 22.7913 64.1005 22.7913C62.6003 22.7913 61.4049 23.2601 60.5142 24.1977C59.6469 25.1119 59.2133 26.4362 59.2133 28.1708V39H55.205V19.6269H59.2133V21.842C59.8696 21.045 60.7017 20.4239 61.7096 19.9785C62.7175 19.5332 63.7958 19.3105 64.9443 19.3105C66.4913 19.3105 67.8743 19.6387 69.0932 20.295C70.3121 20.9513 71.2496 21.9006 71.906 23.1429C72.492 21.9709 73.4061 21.045 74.6484 20.3653C75.8907 19.6621 77.2268 19.3105 78.6566 19.3105ZM100.142 39.3164C98.3132 39.3164 96.6607 38.9062 95.184 38.0858C93.7073 37.242 92.547 36.07 91.7031 34.5699C90.8593 33.0463 90.4374 31.2883 90.4374 29.2959C90.4374 27.3269 90.871 25.5807 91.7383 24.0571C92.6056 22.5335 93.7893 21.3615 95.2894 20.5411C96.7896 19.7207 98.4656 19.3105 100.317 19.3105C102.169 19.3105 103.845 19.7207 105.345 20.5411C106.845 21.3615 108.029 22.5335 108.896 24.0571C109.764 25.5807 110.197 27.3269 110.197 29.2959C110.197 31.2648 109.752 33.0111 108.861 34.5347C107.97 36.0583 106.752 37.242 105.205 38.0858C103.681 38.9062 101.993 39.3164 100.142 39.3164ZM100.142 35.8356C101.173 35.8356 102.134 35.5895 103.025 35.0973C103.939 34.605 104.677 33.8667 105.24 32.8822C105.802 31.8977 106.084 30.7023 106.084 29.2959C106.084 27.8895 105.814 26.7058 105.275 25.7447C104.736 24.7603 104.021 24.0219 103.13 23.5297C102.239 23.0374 101.278 22.7913 100.247 22.7913C99.2156 22.7913 98.2546 23.0374 97.3639 23.5297C96.4966 24.0219 95.8051 24.7603 95.2894 25.7447C94.7738 26.7058 94.5159 27.8895 94.5159 29.2959C94.5159 31.382 95.0433 32.9994 96.0981 34.1479C97.1764 35.2731 98.5242 35.8356 100.142 35.8356ZM121.649 35.4137L127.134 19.6269H131.388L124.004 39H119.223L111.874 19.6269H116.164L121.649 35.4137Z" fill="white"/>
<rect y="53" width="138" height="0.686567" rx="0.343284" fill="#C4C4C4"/>
<path d="M3.33817 66.8056C3.69583 66.183 4.2257 65.6664 4.92778 65.2557C5.6431 64.8318 6.47102 64.6199 7.41153 64.6199C8.37854 64.6199 9.25282 64.8517 10.0344 65.3153C10.8292 65.779 11.4518 66.4347 11.9022 67.2825C12.3526 68.117 12.5777 69.0906 12.5777 70.2034C12.5777 71.3028 12.3526 72.2831 11.9022 73.1441C11.4518 74.0052 10.8292 74.6741 10.0344 75.151C9.25282 75.6279 8.37854 75.8663 7.41153 75.8663C6.48426 75.8663 5.66297 75.661 4.94765 75.2504C4.24557 74.8265 3.70908 74.3032 3.33817 73.6806V80.8537H1.52999V64.7987H3.33817V66.8056ZM10.7298 70.2034C10.7298 69.3821 10.5642 68.6667 10.2331 68.0574C9.90191 67.448 9.45153 66.9844 8.88192 66.6665C8.32556 66.3486 7.70958 66.1896 7.034 66.1896C6.37167 66.1896 5.75569 66.3552 5.18609 66.6864C4.62972 67.0043 4.17934 67.4745 3.83492 68.0971C3.50375 68.7065 3.33817 69.4152 3.33817 70.2232C3.33817 71.0445 3.50375 71.7665 3.83492 72.3891C4.17934 72.9984 4.62972 73.4687 5.18609 73.7998C5.75569 74.1178 6.37167 74.2767 7.034 74.2767C7.70958 74.2767 8.32556 74.1178 8.88192 73.7998C9.45153 73.4687 9.90191 72.9984 10.2331 72.3891C10.5642 71.7665 10.7298 71.0379 10.7298 70.2034ZM24.1179 66.5671C24.4358 65.9445 24.8862 65.461 25.4691 65.1166C26.0652 64.7722 26.7871 64.6 27.6349 64.6V66.4678H27.158C25.1313 66.4678 24.1179 67.5673 24.1179 69.7662V75.6875H22.3097V64.7987H24.1179V66.5671ZM47.0091 69.8258C47.0091 70.1702 46.9893 70.5345 46.9495 70.9187H38.2464C38.3127 71.9917 38.677 72.8328 39.3393 73.4422C40.0149 74.0383 40.8296 74.3363 41.7833 74.3363C42.5649 74.3363 43.214 74.1575 43.7306 73.7998C44.2605 73.4289 44.6314 72.9388 44.8433 72.3295H46.7906C46.4991 73.3759 45.9163 74.2304 45.042 74.8927C44.1677 75.5418 43.0815 75.8663 41.7833 75.8663C40.7501 75.8663 39.8228 75.6345 39.0015 75.1709C38.1935 74.7072 37.5576 74.0515 37.094 73.2037C36.6304 72.3427 36.3985 71.3492 36.3985 70.2232C36.3985 69.0973 36.6237 68.1104 37.0741 67.2626C37.5245 66.4148 38.1537 65.7657 38.9618 65.3153C39.7831 64.8517 40.7236 64.6199 41.7833 64.6199C42.8166 64.6199 43.7306 64.8451 44.5254 65.2955C45.3202 65.7458 45.9295 66.3684 46.3534 67.1632C46.7906 67.9448 47.0091 68.8323 47.0091 69.8258ZM45.1414 69.4483C45.1414 68.7595 44.989 68.17 44.6843 67.6799C44.3797 67.1765 43.9624 66.799 43.4325 66.5473C42.9159 66.2823 42.3397 66.1499 41.7038 66.1499C40.7898 66.1499 40.0083 66.4413 39.3592 67.0242C38.7233 67.607 38.359 68.4151 38.2663 69.4483H45.1414ZM60.6026 75.8663C59.7681 75.8663 59.0196 75.7272 58.3573 75.4491C57.6949 75.1576 57.1717 74.7602 56.7875 74.2569C56.4034 73.7402 56.1914 73.1508 56.1517 72.4884H58.0195C58.0725 73.0315 58.3242 73.4753 58.7745 73.8197C59.2382 74.1641 59.8409 74.3363 60.5827 74.3363C61.2716 74.3363 61.8147 74.184 62.2121 73.8793C62.6095 73.5747 62.8082 73.1905 62.8082 72.7269C62.8082 72.25 62.5962 71.8989 62.1723 71.6737C61.7484 71.4353 61.0927 71.2035 60.2052 70.9783C59.3971 70.7663 58.7348 70.5544 58.2182 70.3425C57.7148 70.1173 57.2777 69.7927 56.9068 69.3688C56.5491 68.9317 56.3703 68.3621 56.3703 67.66C56.3703 67.1036 56.5359 66.5936 56.867 66.13C57.1982 65.6664 57.6684 65.3021 58.2778 65.0371C58.8871 64.759 59.5826 64.6199 60.3642 64.6199C61.5696 64.6199 62.5432 64.9246 63.2851 65.5339C64.0269 66.1432 64.4243 66.9778 64.4773 68.0375H62.6691C62.6293 67.4679 62.3975 67.0109 61.9736 66.6665C61.563 66.3221 61.0066 66.1499 60.3045 66.1499C59.6555 66.1499 59.1388 66.289 58.7547 66.5671C58.3705 66.8453 58.1784 67.2096 58.1784 67.66C58.1784 68.0177 58.291 68.3157 58.5162 68.5541C58.7547 68.7793 59.0461 68.9648 59.3905 69.1105C59.7482 69.243 60.2383 69.3953 60.8609 69.5675C61.6425 69.7795 62.2783 69.9914 62.7684 70.2034C63.2586 70.4021 63.6758 70.7067 64.0202 71.1174C64.3779 71.528 64.5634 72.0645 64.5766 72.7269C64.5766 73.323 64.411 73.8595 64.0799 74.3363C63.7487 74.8132 63.2784 75.1907 62.6691 75.4689C62.073 75.7339 61.3842 75.8663 60.6026 75.8663ZM84.4161 69.8258C84.4161 70.1702 84.3962 70.5345 84.3565 70.9187H75.6534C75.7196 71.9917 76.0839 72.8328 76.7462 73.4422C77.4218 74.0383 78.2365 74.3363 79.1903 74.3363C79.9718 74.3363 80.6209 74.1575 81.1375 73.7998C81.6674 73.4289 82.0383 72.9388 82.2503 72.3295H84.1975C83.9061 73.3759 83.3232 74.2304 82.449 74.8927C81.5747 75.5418 80.4884 75.8663 79.1903 75.8663C78.157 75.8663 77.2298 75.6345 76.4085 75.1709C75.6004 74.7072 74.9646 74.0515 74.5009 73.2037C74.0373 72.3427 73.8055 71.3492 73.8055 70.2232C73.8055 69.0973 74.0307 68.1104 74.4811 67.2626C74.9314 66.4148 75.5607 65.7657 76.3687 65.3153C77.19 64.8517 78.1305 64.6199 79.1903 64.6199C80.2235 64.6199 81.1375 64.8451 81.9323 65.2955C82.7271 65.7458 83.3365 66.3684 83.7604 67.1632C84.1975 67.9448 84.4161 68.8323 84.4161 69.8258ZM82.5483 69.4483C82.5483 68.7595 82.396 68.17 82.0913 67.6799C81.7866 67.1765 81.3693 66.799 80.8395 66.5473C80.3229 66.2823 79.7466 66.1499 79.1108 66.1499C78.1968 66.1499 77.4152 66.4413 76.7661 67.0242C76.1303 67.607 75.766 68.4151 75.6733 69.4483H82.5483ZM99.46 64.6C100.785 64.6 101.858 65.004 102.679 65.8121C103.5 66.6069 103.911 67.7593 103.911 69.2695V75.6875H102.123V69.5278C102.123 68.4416 101.851 67.6136 101.308 67.044C100.765 66.4612 100.023 66.1697 99.0825 66.1697C98.1288 66.1697 97.3671 66.4678 96.7975 67.0639C96.2411 67.66 95.9629 68.5277 95.9629 69.6669V75.6875H94.1547V64.7987H95.9629V66.3486C96.3206 65.7922 96.8041 65.3617 97.4134 65.057C98.036 64.7523 98.7182 64.6 99.46 64.6ZM116.422 66.289V72.707C116.422 73.2369 116.535 73.6144 116.76 73.8396C116.985 74.0515 117.376 74.1575 117.932 74.1575H119.264V75.6875H117.634C116.627 75.6875 115.872 75.4557 115.369 74.992C114.866 74.5284 114.614 73.7667 114.614 72.707V66.289H113.203V64.7987H114.614V62.0566H116.422V64.7987H119.264V66.289H116.422ZM132.661 75.8663C131.827 75.8663 131.078 75.7272 130.416 75.4491C129.753 75.1576 129.23 74.7602 128.846 74.2569C128.462 73.7402 128.25 73.1508 128.21 72.4884H130.078C130.131 73.0315 130.383 73.4753 130.833 73.8197C131.297 74.1641 131.899 74.3363 132.641 74.3363C133.33 74.3363 133.873 74.184 134.271 73.8793C134.668 73.5747 134.867 73.1905 134.867 72.7269C134.867 72.25 134.655 71.8989 134.231 71.6737C133.807 71.4353 133.151 71.2035 132.264 70.9783C131.456 70.7663 130.793 70.5544 130.277 70.3425C129.773 70.1173 129.336 69.7927 128.965 69.3688C128.608 68.9317 128.429 68.3621 128.429 67.66C128.429 67.1036 128.594 66.5936 128.925 66.13C129.257 65.6664 129.727 65.3021 130.336 65.0371C130.946 64.759 131.641 64.6199 132.423 64.6199C133.628 64.6199 134.602 64.9246 135.344 65.5339C136.085 66.1432 136.483 66.9778 136.536 68.0375H134.728C134.688 67.4679 134.456 67.0109 134.032 66.6665C133.621 66.3221 133.065 66.1499 132.363 66.1499C131.714 66.1499 131.197 66.289 130.813 66.5671C130.429 66.8453 130.237 67.2096 130.237 67.66C130.237 68.0177 130.35 68.3157 130.575 68.5541C130.813 68.7793 131.105 68.9648 131.449 69.1105C131.807 69.243 132.297 69.3953 132.919 69.5675C133.701 69.7795 134.337 69.9914 134.827 70.2034C135.317 70.4021 135.734 70.7067 136.079 71.1174C136.436 71.528 136.622 72.0645 136.635 72.7269C136.635 73.323 136.469 73.8595 136.138 74.3363C135.807 74.8132 135.337 75.1907 134.728 75.4689C134.131 75.7339 133.443 75.8663 132.661 75.8663Z" fill="white"/>
</svg>
