<svg width="665" height="106" viewBox="0 0 665 106" fill="none" xmlns="http://www.w3.org/2000/svg">
<path d="M4.63376 26.4445L5.50793 26.9301L5.51043 26.9256L4.63376 26.4445ZM16.8673 14.0152L17.3576 14.8868L17.3612 14.8847L16.8673 14.0152ZM55.7212 15.9725L56.3169 15.1693L55.7212 15.9725ZM67.3676 33.5889V34.5889H68.6648L68.3347 33.3344L67.3676 33.5889ZM48.9683 33.5889L48.0658 34.0196L48.3375 34.5889H48.9683V33.5889ZM43.0962 27.0317L42.5783 27.8873L42.5882 27.8931L43.0962 27.0317ZM22.0544 30.1635L22.8011 30.8287L22.0544 30.1635ZM22.0544 58.9369L21.3077 59.6021L22.0544 58.9369ZM43.0962 62.0687L42.5881 61.2073L42.5784 61.2132L43.0962 62.0687ZM48.9683 55.5115V54.5115H48.3375L48.0658 55.0808L48.9683 55.5115ZM67.3676 55.5115L68.3347 55.766L68.6648 54.5115H67.3676V55.5115ZM55.7212 73.1279L56.311 73.9355L56.3169 73.9311L55.7212 73.1279ZM16.8673 75.0853L16.3689 75.9522L16.3753 75.9558L16.3817 75.9594L16.8673 75.0853ZM4.63376 62.6559L5.50792 62.1703L4.63376 62.6559ZM1.22967 44.5502C1.22967 37.9134 2.66409 32.049 5.50792 26.9301L3.7596 25.9589C0.731304 31.4098 -0.770333 37.6159 -0.770333 44.5502H1.22967ZM5.51043 26.9256C8.35847 21.7358 12.3039 17.7295 17.3576 14.8867L16.3771 13.1436C10.9915 16.173 6.78117 20.4529 3.75709 25.9634L5.51043 26.9256ZM17.3612 14.8847C22.4815 11.9769 28.2785 10.5132 34.7773 10.5132V8.51321C27.966 8.51321 21.823 10.0508 16.3735 13.1456L17.3612 14.8847ZM34.7773 10.5132C42.7473 10.5132 49.5128 12.6135 55.1256 16.7758L56.3169 15.1693C50.3159 10.7192 43.1188 8.51321 34.7773 8.51321V10.5132ZM55.1256 16.7758C60.7377 20.9376 64.497 26.6101 66.4005 33.8434L68.3347 33.3344C66.3234 25.6917 62.3185 19.6199 56.3169 15.1693L55.1256 16.7758ZM67.3676 32.5889H48.9683V34.5889H67.3676V32.5889ZM49.8708 33.1582C48.4218 30.1222 46.3335 27.7799 43.6041 26.1703L42.5882 27.8931C44.948 29.2848 46.7745 31.314 48.0658 34.0196L49.8708 33.1582ZM43.614 26.1762C40.9626 24.5715 37.9418 23.7807 34.5816 23.7807V25.7807C37.6155 25.7807 40.271 26.4907 42.5784 27.8872L43.614 26.1762ZM34.5816 23.7807C29.1652 23.7807 24.7095 25.68 21.3077 29.4983L22.8011 30.8287C25.7934 27.47 29.6891 25.7807 34.5816 25.7807V23.7807ZM21.3077 29.4983C17.9097 33.3124 16.2588 38.3657 16.2588 44.5502H18.2588C18.2588 38.7295 19.8049 34.1917 22.8011 30.8287L21.3077 29.4983ZM16.2588 44.5502C16.2588 50.7347 17.9097 55.788 21.3077 59.6021L22.8011 58.2717C19.8049 54.9087 18.2588 50.3709 18.2588 44.5502H16.2588ZM21.3077 59.6021C24.7095 63.4204 29.1652 65.3197 34.5816 65.3197V63.3197C29.6891 63.3197 25.7934 61.6304 22.8011 58.2717L21.3077 59.6021ZM34.5816 65.3197C37.9418 65.3197 40.9626 64.529 43.614 62.9242L42.5784 61.2132C40.271 62.6098 37.6155 63.3197 34.5816 63.3197V65.3197ZM43.6041 62.9301C46.3335 61.3205 48.4218 58.9782 49.8708 55.9422L48.0658 55.0808C46.7745 57.7865 44.948 59.8156 42.5882 61.2073L43.6041 62.9301ZM48.9683 56.5115H67.3676V54.5115H48.9683V56.5115ZM66.4005 55.257C64.497 62.4903 60.7377 68.1628 55.1256 72.3246L56.3169 73.9311C62.3185 69.4805 66.3234 63.4087 68.3347 55.766L66.4005 55.257ZM55.1314 72.3203C49.5183 76.4198 42.7507 78.4893 34.7773 78.4893V80.4893C43.1154 80.4893 50.3104 78.3179 56.311 73.9354L55.1314 72.3203ZM34.7773 78.4893C28.2747 78.4893 22.4747 77.0565 17.353 74.2111L16.3817 75.9594C21.8298 78.9861 27.9698 80.4893 34.7773 80.4893V78.4893ZM17.3658 74.2183C12.3044 71.308 8.3561 67.297 5.50792 62.1703L3.7596 63.1416C6.78354 68.5847 10.991 72.8599 16.3689 75.9522L17.3658 74.2183ZM5.50792 62.1703C2.66409 57.0514 1.22967 51.187 1.22967 44.5502H-0.770333C-0.770333 51.4846 0.731304 57.6906 3.7596 63.1416L5.50792 62.1703ZM87.9904 76.3575L87.5163 77.238L87.5219 77.241L87.9904 76.3575ZM77.9099 66.5707L77.0408 67.0654L77.0466 67.0754L77.9099 66.5707ZM78.0078 36.9165L78.8711 37.4212L78.8744 37.4154L78.0078 36.9165ZM88.1861 27.0317L88.6546 27.9152L88.1861 27.0317ZM117.155 27.0317L116.687 27.9152L117.155 27.0317ZM127.334 36.9165L126.467 37.4154L126.47 37.4212L127.334 36.9165ZM127.236 66.5707L126.375 66.0619L126.372 66.066L127.236 66.5707ZM116.96 76.3575L116.496 75.4712L116.491 75.4741L116.96 76.3575ZM110.598 61.7751L109.881 61.078L109.876 61.0832L109.871 61.0885L110.598 61.7751ZM110.696 41.6142L109.959 42.2899L109.964 42.2954L109.969 42.3008L110.696 41.6142ZM94.5476 41.6142L95.2752 42.3002L95.2847 42.2899L94.5476 41.6142ZM94.4497 61.7751L93.7023 62.4395L93.7074 62.4452L93.7126 62.4508L94.4497 61.7751ZM102.475 78.783C97.2719 78.783 92.6071 77.6739 88.4589 75.4741L87.5219 77.241C91.9861 79.6084 96.9777 80.783 102.475 80.783V78.783ZM88.4645 75.4771C84.3886 73.2824 81.1617 70.1516 78.7732 66.066L77.0466 67.0754C79.6167 71.4717 83.1101 74.8655 87.5163 77.238L88.4645 75.4771ZM78.779 66.076C76.4638 62.0088 75.2888 57.2261 75.2888 51.6946H73.2888C73.2888 57.5159 74.5278 62.6506 77.0408 67.0654L78.779 66.076ZM75.2888 51.6946C75.2888 46.2352 76.4934 41.4883 78.8711 37.4212L77.1445 36.4118C74.5635 40.8266 73.2888 45.9318 73.2888 51.6946H75.2888ZM78.8744 37.4154C81.2618 33.2689 84.518 30.1088 88.6546 27.9152L87.7176 26.1483C83.2418 28.5218 79.7124 31.9515 77.1411 36.4175L78.8744 37.4154ZM88.6546 27.9152C92.8028 25.7154 97.4676 24.6063 102.671 24.6063V22.6063C97.1735 22.6063 92.1819 23.7808 87.7176 26.1483L88.6546 27.9152ZM102.671 24.6063C107.874 24.6063 112.539 25.7154 116.687 27.9152L117.624 26.1483C113.16 23.7808 108.168 22.6063 102.671 22.6063V24.6063ZM116.687 27.9152C120.823 30.1088 124.08 33.2689 126.467 37.4154L128.2 36.4175C125.629 31.9515 122.1 28.5218 117.624 26.1483L116.687 27.9152ZM126.47 37.4212C128.848 41.4883 130.053 46.2352 130.053 51.6946H132.053C132.053 45.9318 130.778 40.8266 128.197 36.4118L126.47 37.4212ZM130.053 51.6946C130.053 57.1491 128.818 61.9279 126.375 66.0619L128.097 67.0794C130.743 62.601 132.053 57.4624 132.053 51.6946H130.053ZM126.372 66.066C123.988 70.144 120.702 73.2743 116.496 75.4712L117.423 77.2439C121.96 74.8736 125.524 71.4793 128.099 67.0754L126.372 66.066ZM116.491 75.4741C112.343 77.6739 107.678 78.783 102.475 78.783V80.783C107.972 80.783 112.964 79.6084 117.428 77.241L116.491 75.4741ZM102.475 66.2984C105.95 66.2984 108.92 65.0082 111.325 62.4617L109.871 61.0885C107.839 63.2397 105.394 64.2984 102.475 64.2984V66.2984ZM111.315 62.4722C113.834 59.8811 115.023 56.2369 115.023 51.6946H113.023C113.023 55.8953 111.929 58.9715 109.881 61.078L111.315 62.4722ZM115.023 51.6946C115.023 47.1597 113.871 43.5195 111.423 40.9275L109.969 42.3008C111.958 44.4065 113.023 47.4866 113.023 51.6946H115.023ZM111.433 40.9384C109.09 38.3822 106.147 37.0909 102.671 37.0909V39.0909C105.588 39.0909 107.996 40.1484 109.959 42.2899L111.433 40.9384ZM102.671 37.0909C99.1357 37.0909 96.158 38.3774 93.8104 40.9384L95.2847 42.2899C97.2434 40.1532 99.6811 39.0909 102.671 39.0909V37.0909ZM93.82 40.9281C91.4308 43.4621 90.3179 47.1086 90.3179 51.6946H92.3179C92.3179 47.4072 93.3581 44.3334 95.2752 42.3002L93.82 40.9281ZM90.3179 51.6946C90.3179 56.2153 91.3977 59.8468 93.7023 62.4395L95.1971 61.1107C93.326 59.0057 92.3179 55.9169 92.3179 51.6946H90.3179ZM93.7126 62.4508C96.0558 65.0071 98.9987 66.2984 102.475 66.2984V64.2984C99.5571 64.2984 97.1498 63.2408 95.1869 61.0994L93.7126 62.4508ZM225.762 29.9678L225.044 30.6634L225.049 30.6692L225.762 29.9678ZM231.83 79V80H232.83V79H231.83ZM215.192 79H214.192V80H215.192V79ZM212.354 41.2227L211.623 41.905L211.635 41.9176L211.647 41.9298L212.354 41.2227ZM196.989 41.2227L196.27 40.5277L196.269 40.5281L196.989 41.2227ZM194.248 79V80H195.248V79H194.248ZM177.611 79H176.611V80H177.611V79ZM174.772 41.2227L174.041 41.905L174.053 41.9176L174.065 41.9298L174.772 41.2227ZM159.407 41.2227L158.688 40.5277L158.688 40.5281L159.407 41.2227ZM156.667 79V80H157.667V79H156.667ZM139.931 79H138.931V80H139.931V79ZM139.931 24.3893V23.3893H138.931V24.3893H139.931ZM156.667 24.3893H157.667V23.3893H156.667V24.3893ZM156.667 31.2401H155.667V34.2632L157.469 31.8364L156.667 31.2401ZM163.322 25.8573L163.752 26.7601L163.76 26.756L163.769 26.7517L163.322 25.8573ZM183.581 26.4445L183.098 27.3204L183.105 27.3244L183.581 26.4445ZM191.214 33.9804L190.342 34.469L191.163 35.9362L192.06 34.5137L191.214 33.9804ZM209.614 24.802C216.183 24.802 221.287 26.7833 225.044 30.6634L226.48 29.2722C222.277 24.9312 216.616 22.802 209.614 22.802V24.802ZM225.049 30.6692C228.865 34.5461 230.83 39.9762 230.83 47.0948H232.83C232.83 39.5983 230.75 33.6105 226.475 29.2663L225.049 30.6692ZM230.83 47.0948V79H232.83V47.0948H230.83ZM231.83 78H215.192V80H231.83V78ZM216.192 79V49.3458H214.192V79H216.192ZM216.192 49.3458C216.192 45.6444 215.195 42.649 213.061 40.5156L211.647 41.9298C213.298 43.5806 214.192 46.0006 214.192 49.3458H216.192ZM213.085 40.5404C211.029 38.3372 208.195 37.2866 204.72 37.2866V39.2866C207.771 39.2866 210.025 40.1935 211.623 41.905L213.085 40.5404ZM204.72 37.2866C201.245 37.2866 198.387 38.3373 196.27 40.5277L197.708 41.9177C199.375 40.1933 201.671 39.2866 204.72 39.2866V37.2866ZM196.269 40.5281C194.208 42.6628 193.248 45.6536 193.248 49.3458H195.248C195.248 45.9914 196.115 43.5668 197.708 41.9173L196.269 40.5281ZM193.248 49.3458V79H195.248V49.3458H193.248ZM194.248 78H177.611V80H194.248V78ZM178.611 79V49.3458H176.611V79H178.611ZM178.611 49.3458C178.611 45.6444 177.613 42.649 175.48 40.5156L174.065 41.9298C175.716 43.5806 176.611 46.0006 176.611 49.3458H178.611ZM175.503 40.5404C173.447 38.3372 170.613 37.2866 167.139 37.2866V39.2866C170.189 39.2866 172.444 40.1935 174.041 41.905L175.503 40.5404ZM167.139 37.2866C163.663 37.2866 160.805 38.3373 158.688 40.5277L160.126 41.9177C161.793 40.1933 164.09 39.2866 167.139 39.2866V37.2866ZM158.688 40.5281C156.627 42.6628 155.667 45.6536 155.667 49.3458H157.667C157.667 45.9914 158.534 43.5668 160.126 41.9173L158.688 40.5281ZM155.667 49.3458V79H157.667V49.3458H155.667ZM156.667 78H139.931V80H156.667V78ZM140.931 79V24.3893H138.931V79H140.931ZM139.931 25.3893H156.667V23.3893H139.931V25.3893ZM155.667 24.3893V31.2401H157.667V24.3893H155.667ZM157.469 31.8364C159.062 29.6926 161.149 27.9997 163.752 26.7601L162.892 24.9544C160.014 26.3247 157.664 28.2203 155.864 30.6437L157.469 31.8364ZM163.769 26.7517C166.353 25.4595 169.296 24.802 172.619 24.802V22.802C169.026 22.802 165.771 23.5148 162.875 24.9629L163.769 26.7517ZM172.619 24.802C176.583 24.802 180.067 25.65 183.098 27.3203L184.063 25.5687C180.7 23.7157 176.877 22.802 172.619 22.802V24.802ZM183.105 27.3244C186.199 28.9951 188.607 31.3707 190.342 34.469L192.087 33.4918C190.168 30.0655 187.486 27.4171 184.056 25.5646L183.105 27.3244ZM192.06 34.5137C193.861 31.6578 196.316 29.3215 199.448 27.5053L198.444 25.7752C195.051 27.7432 192.352 30.3004 190.368 33.4471L192.06 34.5137ZM199.448 27.5053C202.554 25.7034 205.937 24.802 209.614 24.802V22.802C205.592 22.802 201.862 23.7928 198.444 25.7752L199.448 27.5053ZM244.709 16.1683L244.015 16.8881L244.028 16.9007L244.041 16.9129L244.709 16.1683ZM244.709 3.24961L245.389 3.98241L245.39 3.98151L244.709 3.24961ZM258.998 3.24961L258.303 3.96946L258.317 3.98206L258.33 3.99418L258.998 3.24961ZM258.998 16.1683L259.678 16.9011L259.679 16.9002L258.998 16.1683ZM260.27 24.3893H261.27V23.3893H260.27V24.3893ZM260.27 79V80H261.27V79H260.27ZM243.534 79H242.534V80H243.534V79ZM243.534 24.3893V23.3893H242.534V24.3893H243.534ZM251.951 17.7129C249.221 17.7129 247.057 16.9303 245.376 15.4237L244.041 16.9129C246.145 18.799 248.809 19.7129 251.951 19.7129V17.7129ZM245.403 15.4484C243.772 13.8758 242.968 11.9828 242.968 9.70895H240.968C240.968 12.5242 241.992 14.9375 244.015 16.8881L245.403 15.4484ZM242.968 9.70895C242.968 7.3625 243.777 5.47982 245.389 3.9824L244.028 2.51682C241.987 4.41219 240.968 6.83573 240.968 9.70895H242.968ZM245.39 3.98151C247.072 2.4158 249.231 1.60715 251.951 1.60715V-0.392845C248.799 -0.392845 246.13 0.560146 244.027 2.51772L245.39 3.98151ZM251.951 1.60715C254.6 1.60715 256.688 2.41157 258.303 3.96946L259.692 2.52977C257.654 0.564377 255.044 -0.392845 251.951 -0.392845V1.60715ZM258.33 3.99418C260.004 5.49513 260.836 7.37453 260.836 9.70895H262.836C262.836 6.8237 261.775 4.39688 259.665 2.50504L258.33 3.99418ZM260.836 9.70895C260.836 11.9709 260.009 13.8605 258.316 15.4364L259.679 16.9002C261.771 14.9528 262.836 12.5361 262.836 9.70895H260.836ZM258.317 15.4355C256.703 16.9341 254.61 17.7129 251.951 17.7129V19.7129C255.033 19.7129 257.638 18.7952 259.678 16.9011L258.317 15.4355ZM259.27 24.3893V79H261.27V24.3893H259.27ZM260.27 78H243.534V80H260.27V78ZM244.534 79V24.3893H242.534V79H244.534ZM243.534 25.3893H260.27V23.3893H243.534V25.3893ZM320.941 30.0656L320.2 30.7372L320.205 30.7432L320.211 30.7492L320.941 30.0656ZM326.715 79V80H327.715V79H326.715ZM310.077 79H309.077V80H310.077V79ZM307.239 40.8312L306.509 41.5144L307.239 40.8312ZM291.972 40.8312L292.702 41.5144L291.972 40.8312ZM289.134 79V80H290.134V79H289.134ZM272.398 79H271.398V80H272.398V79ZM272.398 24.3893V23.3893H271.398V24.3893H272.398ZM289.134 24.3893H290.134V23.3893H289.134V24.3893ZM289.134 31.6315H288.134V34.7939L289.952 32.2065L289.134 31.6315ZM295.984 25.9552L296.415 26.8576L296.423 26.8537L296.432 26.8496L295.984 25.9552ZM305.673 24.802C311.827 24.802 316.632 26.7999 320.2 30.7372L321.682 29.3941C317.682 24.98 312.308 22.802 305.673 22.802V24.802ZM320.211 30.7492C323.842 34.6259 325.715 40.0312 325.715 47.0948H327.715C327.715 39.6739 325.739 33.7263 321.671 29.3821L320.211 30.7492ZM325.715 47.0948V79H327.715V47.0948H325.715ZM326.715 78H310.077V80H326.715V78ZM311.077 79V49.3458H309.077V79H311.077ZM311.077 49.3458C311.077 45.5215 310.084 42.4088 307.97 40.148L306.509 41.5144C308.178 43.2988 309.077 45.8626 309.077 49.3458H311.077ZM307.97 40.148C305.859 37.8915 303.033 36.7973 299.605 36.7973V38.7973C302.573 38.7973 304.836 39.7256 306.509 41.5144L307.97 40.148ZM299.605 36.7973C296.178 36.7973 293.352 37.8915 291.241 40.148L292.702 41.5144C294.375 39.7256 296.638 38.7973 299.605 38.7973V36.7973ZM291.241 40.148C289.127 42.4088 288.134 45.5215 288.134 49.3458H290.134C290.134 45.8626 291.033 43.2988 292.702 41.5144L291.241 40.148ZM288.134 49.3458V79H290.134V49.3458H288.134ZM289.134 78H272.398V80H289.134V78ZM273.398 79V24.3893H271.398V79H273.398ZM272.398 25.3893H289.134V23.3893H272.398V25.3893ZM288.134 24.3893V31.6315H290.134V24.3893H288.134ZM289.952 32.2065C291.542 29.944 293.687 28.1597 296.415 26.8576L295.554 25.0527C292.54 26.4909 290.118 28.4909 288.315 31.0566L289.952 32.2065ZM296.432 26.8496C299.148 25.4914 302.222 24.802 305.673 24.802V22.802C301.948 22.802 298.562 23.5481 295.537 25.0607L296.432 26.8496ZM369.173 25.9552L368.694 26.8331L368.703 26.8375L369.173 25.9552ZM375.926 32.1209L375.075 32.645L376.926 35.6539V32.1209H375.926ZM375.926 24.3893V23.3893H374.926V24.3893H375.926ZM392.662 24.3893H393.662V23.3893H392.662V24.3893ZM389.628 92.5059L388.733 92.0587L388.729 92.0673L388.725 92.076L389.628 92.5059ZM380.526 102.293L380.02 101.43L380.014 101.434L380.526 102.293ZM345.685 100.14L346.293 99.3458L346.286 99.3409L345.685 100.14ZM337.072 84.6764V83.6764H335.956L336.078 84.7857L337.072 84.6764ZM353.612 84.6764L354.582 84.4339L354.393 83.6764H353.612V84.6764ZM357.331 89.5698L357.866 88.725L357.856 88.7185L357.846 88.7123L357.331 89.5698ZM372.794 88.3954L372.111 87.6659L372.099 87.6769L372.087 87.6883L372.794 88.3954ZM375.926 71.1705H376.926V67.7575L375.084 70.6308L375.926 71.1705ZM369.173 77.4341L369.652 78.312L369.66 78.3078L369.667 78.3036L369.173 77.4341ZM346.859 76.3575L346.318 77.1988L346.329 77.2055L346.859 76.3575ZM338.149 66.4728L337.249 66.9091L337.253 66.9173L337.257 66.9255L338.149 66.4728ZM338.149 36.8186L337.257 36.3659L337.252 36.3769L338.149 36.8186ZM346.859 27.0317L347.389 27.8797L346.859 27.0317ZM372.403 41.8099L371.676 42.4972L371.686 42.5072L372.403 41.8099ZM355.472 41.8099L354.755 41.1125L354.755 41.1128L355.472 41.8099ZM355.472 61.5794L354.736 62.2568L354.745 62.2669L354.755 62.2767L355.472 61.5794ZM372.403 61.5794L371.686 60.8819L371.677 60.8922L372.403 61.5794ZM359.093 24.6063C362.805 24.6063 365.995 25.3604 368.694 26.833L369.652 25.0773C366.61 23.4181 363.08 22.6063 359.093 22.6063V24.6063ZM368.703 26.8375C371.5 28.3296 373.612 30.2682 375.075 32.645L376.778 31.5968C375.109 28.8844 372.718 26.7125 369.644 25.0728L368.703 26.8375ZM376.926 32.1209V24.3893H374.926V32.1209H376.926ZM375.926 25.3893H392.662V23.3893H375.926V25.3893ZM391.662 24.3893V78.9021H393.662V24.3893H391.662ZM391.662 78.9021C391.662 83.7882 390.679 88.1671 388.733 92.0587L390.522 92.9531C392.622 88.7542 393.662 84.0639 393.662 78.9021H391.662ZM388.725 92.076C386.858 95.9972 383.966 99.1126 380.02 101.43L381.033 103.155C385.307 100.645 388.483 97.2356 390.531 92.9358L388.725 92.076ZM380.014 101.434C376.162 103.733 371.295 104.914 365.356 104.914V106.914C371.554 106.914 376.8 105.681 381.039 103.151L380.014 101.434ZM365.356 104.914C357.424 104.914 351.099 103.028 346.293 99.3459L345.077 100.933C350.318 104.95 357.108 106.914 365.356 106.914V104.914ZM346.286 99.3409C341.493 95.7305 338.755 90.831 338.066 84.567L336.078 84.7857C336.825 91.5709 339.828 96.9803 345.083 100.938L346.286 99.3409ZM337.072 85.6764H353.612V83.6764H337.072V85.6764ZM352.642 84.9189C353.233 87.2809 354.647 89.1256 356.817 90.4273L357.846 88.7123C356.1 87.6652 355.036 86.2476 354.582 84.4339L352.642 84.9189ZM356.796 90.4146C358.948 91.7774 361.558 92.4293 364.573 92.4293V90.4293C361.847 90.4293 359.629 89.8415 357.866 88.725L356.796 90.4146ZM364.573 92.4293C368.238 92.4293 371.253 91.3507 373.502 89.1025L372.087 87.6883C370.29 89.4853 367.825 90.4293 364.573 90.4293V92.4293ZM373.478 89.1249C375.853 86.8983 376.926 83.4055 376.926 78.9021H374.926C374.926 83.1417 373.911 85.9777 372.111 87.6659L373.478 89.1249ZM376.926 78.9021V71.1705H374.926V78.9021H376.926ZM375.084 70.6308C373.549 73.0266 371.422 75.006 368.679 76.5646L369.667 78.3036C372.666 76.5999 375.042 74.4036 376.768 71.7102L375.084 70.6308ZM368.694 76.5562C365.995 78.0289 362.805 78.783 359.093 78.783V80.783C363.08 80.783 366.61 79.9711 369.652 78.312L368.694 76.5562ZM359.093 78.783C354.769 78.783 350.877 77.6892 347.389 75.5095L346.329 77.2055C350.149 79.5931 354.412 80.783 359.093 80.783V78.783ZM347.4 75.5164C343.91 73.2725 341.121 70.1182 339.041 66.0201L337.257 66.9255C339.483 71.3093 342.501 74.7449 346.318 77.1987L347.4 75.5164ZM339.049 66.0365C337.037 61.8878 336.017 57.0827 336.017 51.5968H334.017C334.017 57.3331 335.085 62.4453 337.249 66.9091L339.049 66.0365ZM336.017 51.5968C336.017 46.1104 337.037 41.3404 339.046 37.2603L337.252 36.3769C335.085 40.7787 334.017 45.8609 334.017 51.5968H336.017ZM339.041 37.2713C341.12 33.1752 343.905 30.0571 347.389 27.8797L346.329 26.1837C342.505 28.5736 339.484 31.9801 337.257 36.3659L339.041 37.2713ZM347.389 27.8797C350.877 25.7 354.769 24.6063 359.093 24.6063V22.6063C354.412 22.6063 350.149 23.7962 346.329 26.1837L347.389 27.8797ZM376.926 51.6946C376.926 47.3243 375.691 43.7557 373.12 41.1125L371.686 42.5072C373.812 44.6922 374.926 47.7135 374.926 51.6946H376.926ZM373.129 41.1227C370.657 38.5086 367.588 37.1887 363.986 37.1887V39.1887C367.039 39.1887 369.582 40.283 371.677 42.4971L373.129 41.1227ZM363.986 37.1887C360.385 37.1887 357.289 38.5076 354.755 41.1125L356.188 42.5072C358.352 40.284 360.932 39.1887 363.986 39.1887V37.1887ZM354.755 41.1128C352.243 43.6958 351.046 47.2354 351.046 51.5968H353.046C353.046 47.6067 354.133 44.6217 356.189 42.507L354.755 41.1128ZM351.046 51.5968C351.046 55.9608 352.244 59.5514 354.736 62.2568L356.207 60.9019C354.132 58.6486 353.046 55.5842 353.046 51.5968H351.046ZM354.755 62.2767C357.289 64.8816 360.385 66.2005 363.986 66.2005V64.2005C360.932 64.2005 358.352 63.1053 356.188 60.882L354.755 62.2767ZM363.986 66.2005C367.588 66.2005 370.657 64.8806 373.129 62.2666L371.677 60.8922C369.582 63.1063 367.039 64.2005 363.986 64.2005V66.2005ZM373.12 62.2767C375.691 59.6335 376.926 56.065 376.926 51.6946H374.926C374.926 55.6758 373.812 58.697 371.686 60.882L373.12 62.2767ZM436.862 77.2384L436.483 78.1637L436.862 77.2384ZM427.271 69.9961L426.465 70.5882L426.473 70.5987L427.271 69.9961ZM423.552 58.4476V57.4476H422.522L422.552 58.4765L423.552 58.4476ZM441.364 58.4476L442.359 58.3455L442.266 57.4476H441.364V58.4476ZM444.006 64.3197L443.332 65.0582L443.341 65.0663L443.35 65.0743L444.006 64.3197ZM455.75 64.6133L456.362 65.4046L456.373 65.3961L456.384 65.3873L455.75 64.6133ZM456.142 55.6094L455.435 56.3165L455.445 56.3266L455.455 56.3364L456.142 55.6094ZM451.934 52.869L451.531 53.7844L451.537 53.7872L451.544 53.79L451.934 52.869ZM444.887 50.4223L444.592 51.3779L444.602 51.3807L444.887 50.4223ZM434.024 46.3118L433.585 47.2104L434.024 46.3118ZM426.781 40.244L427.579 39.6409L426.781 40.244ZM430.696 14.7981L431.308 15.5887L431.315 15.5833L430.696 14.7981ZM467.103 14.7981L466.484 15.5833L466.491 15.5887L467.103 14.7981ZM474.541 29.8699V30.8699H475.593L475.54 29.8195L474.541 29.8699ZM456.436 29.8699L455.437 29.9286L455.493 30.8699H456.436V29.8699ZM453.989 24.6829L453.333 25.4375L453.342 25.4458L453.352 25.4538L453.989 24.6829ZM443.321 24.3893L443.965 25.1542L443.977 25.1445L443.988 25.1345L443.321 24.3893ZM444.593 34.1761L445.104 33.3163L444.593 34.1761ZM454.38 38.1887L454.701 37.2414L454.688 37.2373L454.38 38.1887ZM465.146 42.495L464.699 43.3894L464.707 43.3935L465.146 42.495ZM472.388 48.465L471.598 49.0775L472.388 48.465ZM472.388 69.2131L471.543 68.6785L471.539 68.6847L471.535 68.691L472.388 69.2131ZM463.776 76.8469L463.328 75.9525L463.776 76.8469ZM450.368 78.6851C445.452 78.6851 441.082 77.8873 437.241 76.3131L436.483 78.1637C440.601 79.8517 445.235 80.6851 450.368 80.6851V78.6851ZM437.241 76.3131C433.414 74.7448 430.367 72.4368 428.069 69.3935L426.473 70.5987C429.003 73.9495 432.349 76.4697 436.483 78.1637L437.241 76.3131ZM428.077 69.404C425.864 66.3922 424.677 62.746 424.551 58.4186L422.552 58.4765C422.688 63.1531 423.98 67.2059 426.465 70.5882L428.077 69.404ZM423.552 59.4476H441.364V57.4476H423.552V59.4476ZM440.369 58.5496C440.648 61.273 441.607 63.4828 443.332 65.0582L444.68 63.5812C443.405 62.4162 442.601 60.7113 442.359 58.3455L440.369 58.5496ZM443.35 65.0743C445.07 66.5696 447.277 67.2771 449.878 67.2771V65.2771C447.651 65.2771 445.944 64.6797 444.662 63.5651L443.35 65.0743ZM449.878 67.2771C452.499 67.2771 454.697 66.6911 456.362 65.4046L455.139 63.822C453.933 64.7539 452.217 65.2771 449.878 65.2771V67.2771ZM456.384 65.3873C458.074 64.0041 458.904 62.1093 458.904 59.8177H456.904C456.904 61.5714 456.298 62.8736 455.117 63.8393L456.384 65.3873ZM458.904 59.8177C458.904 57.8617 458.214 56.1908 456.829 54.8824L455.455 56.3364C456.419 57.2463 456.904 58.381 456.904 59.8177H458.904ZM456.849 54.9023C455.634 53.6876 454.118 52.7074 452.323 51.9481L451.544 53.79C453.142 54.4661 454.431 55.3128 455.435 56.3165L456.849 54.9023ZM452.336 51.9537C450.648 51.211 448.253 50.3815 445.172 49.464L444.602 51.3807C447.654 52.29 449.956 53.0917 451.531 53.7844L452.336 51.9537ZM445.182 49.4669C440.773 48.1053 437.205 46.7528 434.462 45.4133L433.585 47.2104C436.453 48.6113 440.127 49.999 444.592 51.3778L445.182 49.4669ZM434.462 45.4133C431.808 44.1171 429.514 42.2002 427.579 39.6409L425.984 40.8471C428.094 43.638 430.628 45.7663 433.585 47.2104L434.462 45.4133ZM427.579 39.6409C425.721 37.1833 424.747 33.9228 424.747 29.772H422.747C422.747 34.2337 423.797 37.9545 425.984 40.8471L427.579 39.6409ZM424.747 29.772C424.747 23.6548 426.945 18.9688 431.308 15.5887L430.084 14.0076C425.182 17.8045 422.747 23.1011 422.747 29.772H424.747ZM431.315 15.5833C435.73 12.1016 441.529 10.3175 448.802 10.3175V8.31747C441.199 8.31747 434.927 10.1871 430.077 14.013L431.315 15.5833ZM448.802 10.3175C456.21 10.3175 462.073 12.1039 466.484 15.5833L467.722 14.013C462.869 10.1848 456.531 8.31747 448.802 8.31747V10.3175ZM466.491 15.5887C470.867 18.9788 473.229 23.7182 473.542 29.9203L475.54 29.8195C475.201 23.1029 472.604 17.7945 467.716 14.0076L466.491 15.5887ZM474.541 28.8699H456.436V30.8699H474.541V28.8699ZM457.434 29.8112C457.29 27.3587 456.372 25.3543 454.626 23.9119L453.352 25.4538C454.607 26.4908 455.321 27.9444 455.437 29.9286L457.434 29.8112ZM454.645 23.9283C452.93 22.4373 450.759 21.7255 448.215 21.7255V23.7255C450.368 23.7255 452.046 24.3186 453.333 25.4375L454.645 23.9283ZM448.215 21.7255C446.002 21.7255 444.115 22.3371 442.654 23.644L443.988 25.1345C445.007 24.2231 446.382 23.7255 448.215 23.7255V21.7255ZM442.677 23.6243C441.157 24.9042 440.462 26.751 440.462 28.9891H442.462C442.462 27.1819 443.006 25.9622 443.965 25.1542L442.677 23.6243ZM440.462 28.9891C440.462 31.5989 441.726 33.6367 444.083 35.036L445.104 33.3163C443.285 32.2362 442.462 30.816 442.462 28.9891H440.462ZM444.083 35.036C446.269 36.334 449.617 37.6987 454.072 39.1402L454.688 37.2373C450.27 35.8079 447.094 34.4976 445.104 33.3163L444.083 35.036ZM454.06 39.136C458.473 40.6288 462.015 42.0474 464.699 43.3894L465.593 41.6005C462.796 40.2022 459.161 38.75 454.701 37.2415L454.06 39.136ZM464.707 43.3935C467.367 44.6927 469.663 46.5815 471.598 49.0775L473.179 47.8524C471.068 45.1287 468.536 43.0376 465.585 41.5964L464.707 43.3935ZM471.598 49.0775C473.454 51.4728 474.422 54.6013 474.422 58.5454H476.422C476.422 54.2686 475.367 50.6768 473.179 47.8524L471.598 49.0775ZM474.422 58.5454C474.422 62.2778 473.461 65.6472 471.543 68.6785L473.233 69.7478C475.361 66.385 476.422 62.6425 476.422 58.5454H474.422ZM471.535 68.691C469.688 71.7086 466.967 74.133 463.328 75.9525L464.223 77.7413C468.152 75.7766 471.174 73.1118 473.241 69.7353L471.535 68.691ZM463.328 75.9525C459.71 77.7616 455.4 78.6851 450.368 78.6851V80.6851C455.644 80.6851 460.273 79.7164 464.223 77.7413L463.328 75.9525ZM496.095 76.3575L495.621 77.238L495.627 77.241L496.095 76.3575ZM486.015 66.5707L485.146 67.0654L485.151 67.0754L486.015 66.5707ZM486.113 36.9165L486.976 37.4212L486.979 37.4154L486.113 36.9165ZM496.291 27.0317L496.759 27.9152L496.291 27.0317ZM525.26 27.0317L524.792 27.9152L525.26 27.0317ZM535.438 36.9165L534.572 37.4154L534.575 37.4212L535.438 36.9165ZM535.341 66.5707L534.48 66.0619L534.477 66.066L535.341 66.5707ZM525.064 76.3575L524.601 75.4712L524.596 75.4741L525.064 76.3575ZM518.703 61.7751L517.986 61.078L517.981 61.0832L517.976 61.0885L518.703 61.7751ZM518.801 41.6142L518.064 42.2899L518.069 42.2954L518.074 42.3008L518.801 41.6142ZM502.652 41.6142L503.38 42.3002L503.39 42.2899L502.652 41.6142ZM502.555 61.7751L501.807 62.4395L501.812 62.4452L501.817 62.4508L502.555 61.7751ZM510.58 78.783C505.377 78.783 500.712 77.6739 496.564 75.4741L495.627 77.241C500.091 79.6084 505.083 80.783 510.58 80.783V78.783ZM496.569 75.4771C492.494 73.2824 489.267 70.1516 486.878 66.066L485.151 67.0754C487.722 71.4717 491.215 74.8655 495.621 77.238L496.569 75.4771ZM486.884 66.076C484.569 62.0088 483.394 57.2261 483.394 51.6946H481.394C481.394 57.5159 482.633 62.6506 485.146 67.0654L486.884 66.076ZM483.394 51.6946C483.394 46.2352 484.598 41.4883 486.976 37.4212L485.249 36.4118C482.668 40.8266 481.394 45.9318 481.394 51.6946H483.394ZM486.979 37.4154C489.367 33.2689 492.623 30.1088 496.759 27.9152L495.823 26.1483C491.347 28.5218 487.817 31.9515 485.246 36.4175L486.979 37.4154ZM496.759 27.9152C500.908 25.7154 505.572 24.6063 510.776 24.6063V22.6063C505.278 22.6063 500.287 23.7808 495.823 26.1483L496.759 27.9152ZM510.776 24.6063C515.979 24.6063 520.643 25.7154 524.792 27.9152L525.729 26.1483C521.264 23.7808 516.273 22.6063 510.776 22.6063V24.6063ZM524.792 27.9152C528.928 30.1088 532.185 33.2689 534.572 37.4154L536.305 36.4175C533.734 31.9515 530.204 28.5218 525.729 26.1483L524.792 27.9152ZM534.575 37.4212C536.953 41.4883 538.158 46.2352 538.158 51.6946H540.158C540.158 45.9318 538.883 40.8266 536.302 36.4118L534.575 37.4212ZM538.158 51.6946C538.158 57.1491 536.923 61.9279 534.48 66.0619L536.202 67.0794C538.848 62.601 540.158 57.4624 540.158 51.6946H538.158ZM534.477 66.066C532.093 70.144 528.807 73.2743 524.601 75.4712L525.527 77.2439C530.065 74.8736 533.629 71.4793 536.204 67.0754L534.477 66.066ZM524.596 75.4741C520.448 77.6739 515.783 78.783 510.58 78.783V80.783C516.077 80.783 521.069 79.6084 525.533 77.241L524.596 75.4741ZM510.58 66.2984C514.055 66.2984 517.025 65.0082 519.43 62.4617L517.976 61.0885C515.944 63.2397 513.498 64.2984 510.58 64.2984V66.2984ZM519.42 62.4722C521.939 59.8811 523.128 56.2369 523.128 51.6946H521.128C521.128 55.8953 520.034 58.9715 517.986 61.078L519.42 62.4722ZM523.128 51.6946C523.128 47.1597 521.976 43.5195 519.528 40.9275L518.074 42.3008C520.063 44.4065 521.128 47.4866 521.128 51.6946H523.128ZM519.538 40.9384C517.195 38.3822 514.252 37.0909 510.776 37.0909V39.0909C513.693 39.0909 516.101 40.1484 518.064 42.2899L519.538 40.9384ZM510.776 37.0909C507.241 37.0909 504.263 38.3774 501.915 40.9384L503.39 42.2899C505.348 40.1532 507.786 39.0909 510.776 39.0909V37.0909ZM501.925 40.9281C499.536 43.4621 498.423 47.1086 498.423 51.6946H500.423C500.423 47.4072 501.463 44.3334 503.38 42.3002L501.925 40.9281ZM498.423 51.6946C498.423 56.2153 499.503 59.8468 501.807 62.4395L503.302 61.1107C501.431 59.0057 500.423 55.9169 500.423 51.6946H498.423ZM501.817 62.4508C504.161 65.0071 507.104 66.2984 510.58 66.2984V64.2984C507.662 64.2984 505.255 63.2408 503.292 61.0994L501.817 62.4508ZM558.41 76.3575L557.936 77.238L557.942 77.241L558.41 76.3575ZM548.33 66.5707L547.461 67.0654L547.466 67.0754L548.33 66.5707ZM548.428 36.9165L549.291 37.4212L549.294 37.4154L548.428 36.9165ZM558.606 27.0317L559.074 27.9152L558.606 27.0317ZM587.575 27.0317L587.107 27.9152L587.575 27.0317ZM597.753 36.9165L596.887 37.4154L596.89 37.4212L597.753 36.9165ZM597.656 66.5707L596.795 66.0619L596.792 66.066L597.656 66.5707ZM587.379 76.3575L586.916 75.4712L586.911 75.4741L587.379 76.3575ZM581.018 61.7751L580.301 61.078L580.296 61.0832L580.291 61.0885L581.018 61.7751ZM581.116 41.6142L580.379 42.2899L580.384 42.2954L580.389 42.3008L581.116 41.6142ZM564.967 41.6142L565.695 42.3002L565.705 42.2899L564.967 41.6142ZM564.87 61.7751L564.122 62.4395L564.127 62.4452L564.132 62.4508L564.87 61.7751ZM572.895 78.783C567.692 78.783 563.027 77.6739 558.879 75.4741L557.942 77.241C562.406 79.6084 567.398 80.783 572.895 80.783V78.783ZM558.884 75.4771C554.808 73.2824 551.581 70.1516 549.193 66.066L547.466 67.0754C550.036 71.4717 553.53 74.8655 557.936 77.238L558.884 75.4771ZM549.199 66.076C546.884 62.0088 545.708 57.2261 545.708 51.6946H543.708C543.708 57.5159 544.948 62.6506 547.461 67.0654L549.199 66.076ZM545.708 51.6946C545.708 46.2352 546.913 41.4883 549.291 37.4212L547.564 36.4118C544.983 40.8266 543.708 45.9318 543.708 51.6946H545.708ZM549.294 37.4154C551.682 33.2689 554.938 30.1088 559.074 27.9152L558.137 26.1483C553.662 28.5218 550.132 31.9515 547.561 36.4175L549.294 37.4154ZM559.074 27.9152C563.223 25.7154 567.887 24.6063 573.09 24.6063V22.6063C567.593 22.6063 562.602 23.7808 558.137 26.1483L559.074 27.9152ZM573.09 24.6063C578.294 24.6063 582.958 25.7154 587.107 27.9152L588.044 26.1483C583.579 23.7808 578.588 22.6063 573.09 22.6063V24.6063ZM587.107 27.9152C591.243 30.1088 594.499 33.2689 596.887 37.4154L598.62 36.4175C596.049 31.9515 592.519 28.5218 588.044 26.1483L587.107 27.9152ZM596.89 37.4212C599.268 41.4883 600.472 46.2352 600.472 51.6946H602.472C602.472 45.9318 601.198 40.8266 598.617 36.4118L596.89 37.4212ZM600.472 51.6946C600.472 57.1491 599.237 61.9279 596.795 66.0619L598.516 67.0794C601.163 62.601 602.472 57.4624 602.472 51.6946H600.472ZM596.792 66.066C594.408 70.144 591.122 73.2743 586.916 75.4712L587.842 77.2439C592.38 74.8736 595.944 71.4793 598.519 67.0754L596.792 66.066ZM586.911 75.4741C582.763 77.6739 578.098 78.783 572.895 78.783V80.783C578.392 80.783 583.384 79.6084 587.848 77.241L586.911 75.4741ZM572.895 66.2984C576.37 66.2984 579.34 65.0082 581.745 62.4617L580.291 61.0885C578.259 63.2397 575.813 64.2984 572.895 64.2984V66.2984ZM581.735 62.4722C584.254 59.8811 585.443 56.2369 585.443 51.6946H583.443C583.443 55.8953 582.349 58.9715 580.301 61.078L581.735 62.4722ZM585.443 51.6946C585.443 47.1597 584.291 43.5195 581.843 40.9275L580.389 42.3008C582.377 44.4065 583.443 47.4866 583.443 51.6946H585.443ZM581.853 40.9384C579.51 38.3822 576.567 37.0909 573.09 37.0909V39.0909C576.008 39.0909 578.416 40.1484 580.379 42.2899L581.853 40.9384ZM573.09 37.0909C569.555 37.0909 566.578 38.3774 564.23 40.9384L565.705 42.2899C567.663 40.1532 570.101 39.0909 573.09 39.0909V37.0909ZM564.24 40.9281C561.851 43.4621 560.738 47.1086 560.738 51.6946H562.738C562.738 47.4072 563.778 44.3334 565.695 42.3002L564.24 40.9281ZM560.738 51.6946C560.738 56.2153 561.818 59.8468 564.122 62.4395L565.617 61.1107C563.746 59.0057 562.738 55.9169 562.738 51.6946H560.738ZM564.132 62.4508C566.476 65.0071 569.418 66.2984 572.895 66.2984V64.2984C569.977 64.2984 567.57 63.2408 565.607 61.0994L564.132 62.4508ZM658.894 30.0656L658.153 30.7372L658.158 30.7432L658.164 30.7492L658.894 30.0656ZM664.668 79V80H665.668V79H664.668ZM648.03 79H647.03V80H648.03V79ZM645.192 40.8312L644.462 41.5144L645.192 40.8312ZM629.925 40.8312L630.655 41.5144L629.925 40.8312ZM627.086 79V80H628.086V79H627.086ZM610.351 79H609.351V80H610.351V79ZM610.351 24.3893V23.3893H609.351V24.3893H610.351ZM627.086 24.3893H628.086V23.3893H627.086V24.3893ZM627.086 31.6315H626.086V34.7939L627.905 32.2065L627.086 31.6315ZM633.937 25.9552L634.368 26.8576L634.376 26.8537L634.384 26.8496L633.937 25.9552ZM643.626 24.802C649.78 24.802 654.585 26.7999 658.153 30.7372L659.635 29.3941C655.634 24.98 650.261 22.802 643.626 22.802V24.802ZM658.164 30.7492C661.794 34.6259 663.668 40.0312 663.668 47.0948H665.668C665.668 39.6739 663.692 33.7263 659.624 29.3821L658.164 30.7492ZM663.668 47.0948V79H665.668V47.0948H663.668ZM664.668 78H648.03V80H664.668V78ZM649.03 79V49.3458H647.03V79H649.03ZM649.03 49.3458C649.03 45.5215 648.037 42.4088 645.922 40.148L644.462 41.5144C646.131 43.2988 647.03 45.8626 647.03 49.3458H649.03ZM645.922 40.148C643.811 37.8915 640.985 36.7973 637.558 36.7973V38.7973C640.525 38.7973 642.789 39.7256 644.462 41.5144L645.922 40.148ZM637.558 36.7973C634.131 36.7973 631.305 37.8915 629.194 40.148L630.655 41.5144C632.328 39.7256 634.591 38.7973 637.558 38.7973V36.7973ZM629.194 40.148C627.079 42.4088 626.086 45.5215 626.086 49.3458H628.086C628.086 45.8626 628.986 43.2988 630.655 41.5144L629.194 40.148ZM626.086 49.3458V79H628.086V49.3458H626.086ZM627.086 78H610.351V80H627.086V78ZM611.351 79V24.3893H609.351V79H611.351ZM610.351 25.3893H627.086V23.3893H610.351V25.3893ZM626.086 24.3893V31.6315H628.086V24.3893H626.086ZM627.905 32.2065C629.495 29.944 631.64 28.1597 634.368 26.8576L633.507 25.0527C630.493 26.4909 628.071 28.4909 626.268 31.0566L627.905 32.2065ZM634.384 26.8496C637.101 25.4914 640.174 24.802 643.626 24.802V22.802C639.901 22.802 636.515 23.5481 633.49 25.0607L634.384 26.8496Z" fill="#198B93"/>
</svg>
