<svg width="497" height="49" viewBox="0 0 497 49" fill="none" xmlns="http://www.w3.org/2000/svg">
<mask id="path-1-inside-1_45_14" fill="white">
<rect y="0.101562" width="497" height="48.469" rx="3.0774"/>
</mask>
<rect y="0.101562" width="497" height="48.469" rx="3.0774" fill="#212832" stroke="#198B93" stroke-width="7.6935" mask="url(#path-1-inside-1_45_14)"/>
<rect x="388.609" y="3.60938" width="105.181" height="42.5541" fill="#198B93"/>
<path d="M405.591 33.7224C408.233 31.6008 410.302 29.864 411.8 28.512C413.298 27.1392 414.556 25.7144 415.575 24.2376C416.615 22.74 417.135 21.2736 417.135 19.8384C417.135 18.4864 416.802 17.4256 416.137 16.656C415.492 15.8656 414.442 15.4704 412.986 15.4704C411.571 15.4704 410.469 15.9176 409.678 16.812C408.909 17.6856 408.493 18.8608 408.43 20.3376H405.685C405.768 18.008 406.475 16.2088 407.806 14.94C409.138 13.6712 410.854 13.0368 412.954 13.0368C415.097 13.0368 416.792 13.6296 418.04 14.8152C419.309 16.0008 419.943 17.6336 419.943 19.7136C419.943 21.44 419.423 23.1248 418.383 24.768C417.364 26.3904 416.199 27.8256 414.889 29.0736C413.578 30.3008 411.904 31.736 409.866 33.3792H420.598V35.7504H405.591V33.7224ZM423.88 24.4872C423.88 20.9096 424.463 18.1224 425.628 16.1256C426.792 14.108 428.831 13.0992 431.743 13.0992C434.634 13.0992 436.662 14.108 437.827 16.1256C438.992 18.1224 439.574 20.9096 439.574 24.4872C439.574 28.1272 438.992 30.956 437.827 32.9736C436.662 34.9912 434.634 36 431.743 36C428.831 36 426.792 34.9912 425.628 32.9736C424.463 30.956 423.88 28.1272 423.88 24.4872ZM436.766 24.4872C436.766 22.6776 436.641 21.1488 436.392 19.9008C436.163 18.632 435.674 17.6128 434.925 16.8432C434.197 16.0736 433.136 15.6888 431.743 15.6888C430.328 15.6888 429.247 16.0736 428.498 16.8432C427.77 17.6128 427.281 18.632 427.032 19.9008C426.803 21.1488 426.688 22.6776 426.688 24.4872C426.688 26.3592 426.803 27.9296 427.032 29.1984C427.281 30.4672 427.77 31.4864 428.498 32.256C429.247 33.0256 430.328 33.4104 431.743 33.4104C433.136 33.4104 434.197 33.0256 434.925 32.256C435.674 31.4864 436.163 30.4672 436.392 29.1984C436.641 27.9296 436.766 26.3592 436.766 24.4872ZM443.129 33.7224C445.77 31.6008 447.84 29.864 449.337 28.512C450.835 27.1392 452.093 25.7144 453.113 24.2376C454.153 22.74 454.673 21.2736 454.673 19.8384C454.673 18.4864 454.34 17.4256 453.674 16.656C453.029 15.8656 451.979 15.4704 450.523 15.4704C449.109 15.4704 448.006 15.9176 447.216 16.812C446.446 17.6856 446.03 18.8608 445.968 20.3376H443.222C443.305 18.008 444.013 16.2088 445.344 14.94C446.675 13.6712 448.391 13.0368 450.492 13.0368C452.634 13.0368 454.329 13.6296 455.577 14.8152C456.846 16.0008 457.481 17.6336 457.481 19.7136C457.481 21.44 456.961 23.1248 455.921 24.768C454.901 26.3904 453.737 27.8256 452.426 29.0736C451.116 30.3008 449.441 31.736 447.403 33.3792H458.136V35.7504H443.129V33.7224ZM461.075 33.7224C463.716 31.6008 465.786 29.864 467.284 28.512C468.781 27.1392 470.04 25.7144 471.059 24.2376C472.099 22.74 472.619 21.2736 472.619 19.8384C472.619 18.4864 472.286 17.4256 471.62 16.656C470.976 15.8656 469.925 15.4704 468.469 15.4704C467.055 15.4704 465.952 15.9176 465.162 16.812C464.392 17.6856 463.976 18.8608 463.914 20.3376H461.168C461.252 18.008 461.959 16.2088 463.29 14.94C464.621 13.6712 466.337 13.0368 468.438 13.0368C470.58 13.0368 472.276 13.6296 473.524 14.8152C474.792 16.0008 475.427 17.6336 475.427 19.7136C475.427 21.44 474.907 23.1248 473.867 24.768C472.848 26.3904 471.683 27.8256 470.372 29.0736C469.062 30.3008 467.388 31.736 465.349 33.3792H476.082V35.7504H461.075V33.7224Z" fill="black"/>
<path d="M49.1856 15.0316V12.442H55.0513V35H52.1809V15.0316H49.1856ZM72.5022 17.8085C72.0446 15.4996 70.6198 14.3452 68.2277 14.3452C66.3765 14.3452 64.9933 15.0628 64.078 16.4981C63.1628 17.9125 62.7156 20.2525 62.7364 23.5182C63.2148 22.4366 64.0052 21.5941 65.1077 20.9909C66.2309 20.3669 67.4789 20.0549 68.8517 20.0549C70.9942 20.0549 72.6998 20.7205 73.9686 22.0518C75.2583 23.383 75.9031 25.2238 75.9031 27.5743C75.9031 28.9887 75.6223 30.2575 75.0607 31.3807C74.5198 32.504 73.6878 33.3984 72.5646 34.064C71.4622 34.7296 70.1206 35.0624 68.5397 35.0624C66.3973 35.0624 64.7229 34.584 63.5164 33.6272C62.31 32.6704 61.4676 31.3495 60.9892 29.6647C60.5108 27.9799 60.2716 25.8998 60.2716 23.4246C60.2716 15.7908 62.934 11.974 68.2589 11.974C70.2974 11.974 71.899 12.5252 73.0638 13.6276C74.2286 14.73 74.9151 16.1236 75.1231 17.8085H72.5022ZM68.2589 22.4574C67.3645 22.4574 66.5221 22.6446 65.7317 23.019C64.9413 23.3726 64.2965 23.9238 63.7972 24.6726C63.3188 25.4006 63.0796 26.295 63.0796 27.3559C63.0796 28.9367 63.5372 30.2263 64.4525 31.2247C65.3677 32.2023 66.6781 32.6912 68.3837 32.6912C69.8398 32.6912 70.9942 32.2439 71.847 31.3495C72.7206 30.4343 73.1574 29.2071 73.1574 27.6679C73.1574 26.0454 72.7414 24.7766 71.9094 23.8614C71.0774 22.9254 69.8606 22.4574 68.2589 22.4574ZM81.3184 16.1453V22.1919C81.3184 22.6912 81.4245 23.0468 81.6367 23.259C81.8488 23.4587 82.217 23.5585 82.7412 23.5585H83.9954V25H82.4604C81.5119 25 80.8005 24.7816 80.3262 24.3448C79.852 23.908 79.6149 23.1904 79.6149 22.1919V16.1453H78.2857V14.7412H79.6149V12.1578H81.3184V14.7412H83.9954V16.1453H81.3184ZM91.713 14.554C92.4868 14.554 93.1857 14.7225 93.8097 15.0595C94.4337 15.384 94.9205 15.877 95.2699 16.5384C95.6318 17.1999 95.8128 18.0048 95.8128 18.9533V25H94.128V19.1967C94.128 18.1733 93.8721 17.3933 93.3604 16.8566C92.8487 16.3075 92.1498 16.033 91.2637 16.033C90.3652 16.033 89.6476 16.3138 89.1109 16.8754C88.5867 17.437 88.3247 18.2544 88.3247 19.3277V25H86.6211V11.1469H88.3247V16.2014C88.6616 15.6773 89.1234 15.2717 89.71 14.9846C90.309 14.6976 90.9767 14.554 91.713 14.554ZM121.291 30.1639H111.806L110.059 35H107.063L114.926 13.378H118.202L126.033 35H123.038L121.291 30.1639ZM120.48 27.8551L116.548 16.8725L112.617 27.8551H120.48ZM132.299 21.0533C132.861 20.0757 133.693 19.2645 134.795 18.6197C135.919 17.9541 137.219 17.6213 138.695 17.6213C140.214 17.6213 141.587 17.9853 142.814 18.7133C144.062 19.4413 145.04 20.4709 145.747 21.8022C146.454 23.1126 146.808 24.6414 146.808 26.3886C146.808 28.1151 146.454 29.6543 145.747 31.0063C145.04 32.3584 144.062 33.4088 142.814 34.1576C141.587 34.9064 140.214 35.2808 138.695 35.2808C137.239 35.2808 135.95 34.9584 134.827 34.3136C133.724 33.648 132.882 32.8264 132.299 31.8487V43.1122H129.46V17.9021H132.299V21.0533ZM143.906 26.3886C143.906 25.099 143.646 23.9758 143.126 23.019C142.606 22.0622 141.899 21.3341 141.004 20.8349C140.131 20.3357 139.163 20.0861 138.103 20.0861C137.063 20.0861 136.095 20.3461 135.201 20.8661C134.327 21.3653 133.62 22.1038 133.079 23.0814C132.559 24.0382 132.299 25.151 132.299 26.4198C132.299 27.7095 132.559 28.8431 133.079 29.8207C133.62 30.7775 134.327 31.5159 135.201 32.0359C136.095 32.5352 137.063 32.7848 138.103 32.7848C139.163 32.7848 140.131 32.5352 141.004 32.0359C141.899 31.5159 142.606 30.7775 143.126 29.8207C143.646 28.8431 143.906 27.6991 143.906 26.3886ZM153.384 20.6789C153.883 19.7013 154.591 18.9421 155.506 18.4013C156.442 17.8605 157.575 17.5901 158.907 17.5901V20.5229H158.158C154.975 20.5229 153.384 22.2494 153.384 25.7022V35H150.545V17.9021H153.384V20.6789ZM163.651 15.1252C163.11 15.1252 162.652 14.938 162.278 14.5636C161.903 14.1892 161.716 13.7316 161.716 13.1908C161.716 12.65 161.903 12.1924 162.278 11.818C162.652 11.4436 163.11 11.2564 163.651 11.2564C164.171 11.2564 164.607 11.4436 164.961 11.818C165.335 12.1924 165.523 12.65 165.523 13.1908C165.523 13.7316 165.335 14.1892 164.961 14.5636C164.607 14.938 164.171 15.1252 163.651 15.1252ZM165.023 17.9021V35H162.184V17.9021H165.023ZM172.702 11.9116V35H169.862V11.9116H172.702ZM197.715 22.3638V24.7662H185.266V22.3638H197.715ZM210.145 15.0316V12.442H216.01V35H213.14V15.0316H210.145ZM234.772 14.6572L226.098 35H223.228L232.026 14.938H219.983V12.5044H234.772V14.6572ZM239.505 16.1453V22.1919C239.505 22.6912 239.611 23.0468 239.823 23.259C240.035 23.4587 240.403 23.5585 240.928 23.5585H242.182V25H240.647C239.698 25 238.987 24.7816 238.513 24.3448C238.038 23.908 237.801 23.1904 237.801 22.1919V16.1453H236.472V14.7412H237.801V12.1578H239.505V14.7412H242.182V16.1453H239.505ZM249.899 14.554C250.673 14.554 251.372 14.7225 251.996 15.0595C252.62 15.384 253.107 15.877 253.456 16.5384C253.818 17.1999 253.999 18.0048 253.999 18.9533V25H252.314V19.1967C252.314 18.1733 252.059 17.3933 251.547 16.8566C251.035 16.3075 250.336 16.033 249.45 16.033C248.552 16.033 247.834 16.3138 247.297 16.8754C246.773 17.437 246.511 18.2544 246.511 19.3277V25H244.808V11.1469H246.511V16.2014C246.848 15.6773 247.31 15.2717 247.896 14.9846C248.495 14.6976 249.163 14.554 249.899 14.554ZM279.477 30.1639H269.992L268.245 35H265.25L273.112 13.378H276.389L284.22 35H281.225L279.477 30.1639ZM278.666 27.8551L274.735 16.8725L270.804 27.8551H278.666ZM290.486 21.0533C291.047 20.0757 291.879 19.2645 292.982 18.6197C294.105 17.9541 295.405 17.6213 296.882 17.6213C298.4 17.6213 299.773 17.9853 301 18.7133C302.248 19.4413 303.226 20.4709 303.933 21.8022C304.64 23.1126 304.994 24.6414 304.994 26.3886C304.994 28.1151 304.64 29.6543 303.933 31.0063C303.226 32.3584 302.248 33.4088 301 34.1576C299.773 34.9064 298.4 35.2808 296.882 35.2808C295.426 35.2808 294.136 34.9584 293.013 34.3136C291.911 33.648 291.068 32.8264 290.486 31.8487V43.1122H287.647V17.9021H290.486V21.0533ZM302.092 26.3886C302.092 25.099 301.832 23.9758 301.312 23.019C300.792 22.0622 300.085 21.3341 299.191 20.8349C298.317 20.3357 297.35 20.0861 296.289 20.0861C295.249 20.0861 294.282 20.3461 293.387 20.8661C292.514 21.3653 291.807 22.1038 291.266 23.0814C290.746 24.0382 290.486 25.151 290.486 26.4198C290.486 27.7095 290.746 28.8431 291.266 29.8207C291.807 30.7775 292.514 31.5159 293.387 32.0359C294.282 32.5352 295.249 32.7848 296.289 32.7848C297.35 32.7848 298.317 32.5352 299.191 32.0359C300.085 31.5159 300.792 30.7775 301.312 29.8207C301.832 28.8431 302.092 27.6991 302.092 26.3886ZM311.571 20.6789C312.07 19.7013 312.777 18.9421 313.692 18.4013C314.628 17.8605 315.762 17.5901 317.093 17.5901V20.5229H316.344C313.162 20.5229 311.571 22.2494 311.571 25.7022V35H308.731V17.9021H311.571V20.6789ZM321.837 15.1252C321.296 15.1252 320.839 14.938 320.464 14.5636C320.09 14.1892 319.903 13.7316 319.903 13.1908C319.903 12.65 320.09 12.1924 320.464 11.818C320.839 11.4436 321.296 11.2564 321.837 11.2564C322.357 11.2564 322.794 11.4436 323.147 11.818C323.522 12.1924 323.709 12.65 323.709 13.1908C323.709 13.7316 323.522 14.1892 323.147 14.5636C322.794 14.938 322.357 15.1252 321.837 15.1252ZM323.21 17.9021V35H320.371V17.9021H323.21ZM330.888 11.9116V35H328.049V11.9116H330.888Z" fill="#DDDDDD"/>
</svg>
