<svg width="356" height="48" viewBox="0 0 356 48" fill="none" xmlns="http://www.w3.org/2000/svg">
<path d="M96.9028 17.843C97.0508 15.8979 97.8014 14.3757 99.1545 13.2763C100.508 12.1769 102.262 11.6272 104.419 11.6272C105.857 11.6272 107.093 11.8915 108.129 12.42C109.186 12.9275 109.979 13.6251 110.508 14.5131C111.058 15.4011 111.332 16.4054 111.332 17.5259C111.332 18.8367 110.952 19.9678 110.191 20.9192C109.451 21.8706 108.478 22.4838 107.273 22.7586V22.9172C108.647 23.2555 109.736 23.9214 110.54 24.9151C111.343 25.9088 111.745 27.2091 111.745 28.8159C111.745 30.021 111.47 31.1098 110.92 32.0824C110.37 33.0338 109.546 33.7843 108.446 34.334C107.347 34.8837 106.026 35.1586 104.482 35.1586C102.241 35.1586 100.402 34.5772 98.9642 33.4143C97.5265 32.2304 96.7231 30.5601 96.554 28.4036H99.3447C99.4927 29.6721 100.011 30.7081 100.899 31.5115C101.787 32.3149 102.971 32.7166 104.451 32.7166C105.931 32.7166 107.051 32.3361 107.812 31.5749C108.594 30.7927 108.986 29.7884 108.986 28.5622C108.986 26.9765 108.457 25.8348 107.4 25.1371C106.343 24.4394 104.747 24.0906 102.611 24.0906H101.882V21.6804H102.643C104.588 21.6592 106.057 21.3421 107.051 20.729C108.045 20.0947 108.542 19.1221 108.542 17.8113C108.542 16.6908 108.172 15.7922 107.432 15.1157C106.713 14.4391 105.677 14.1008 104.324 14.1008C103.013 14.1008 101.956 14.4391 101.152 15.1157C100.349 15.7922 99.8733 16.7013 99.7253 17.843H96.9028ZM119.003 20.4435C119.51 19.4498 120.229 18.6782 121.159 18.1285C122.111 17.5788 123.263 17.3039 124.616 17.3039V20.285H123.855C120.62 20.285 119.003 22.0398 119.003 25.5494V35H116.117V17.621H119.003V20.4435ZM126.869 26.2471C126.869 24.4711 127.229 22.9172 127.948 21.5852C128.666 20.2321 129.649 19.1856 130.897 18.4456C132.165 17.7056 133.582 17.3356 135.146 17.3356C136.5 17.3356 137.758 17.6528 138.92 18.287C140.083 18.9001 140.971 19.7141 141.584 20.729V11.5321H144.502V35H141.584V31.7335C141.013 32.7695 140.168 33.6258 139.047 34.3023C137.927 34.9577 136.616 35.2854 135.115 35.2854C133.571 35.2854 132.165 34.9049 130.897 34.1437C129.649 33.3826 128.666 32.3149 127.948 30.9407C127.229 29.5664 126.869 28.0019 126.869 26.2471ZM141.584 26.2788C141.584 24.968 141.32 23.8263 140.791 22.8538C140.263 21.8812 139.544 21.1412 138.635 20.6338C137.747 20.1053 136.764 19.841 135.686 19.841C134.607 19.841 133.624 20.0947 132.736 20.6021C131.848 21.1095 131.14 21.8495 130.611 22.822C130.083 23.7946 129.819 24.9363 129.819 26.2471C129.819 27.5791 130.083 28.7419 130.611 29.7356C131.14 30.7081 131.848 31.4587 132.736 31.9872C133.624 32.4946 134.607 32.7483 135.686 32.7483C136.764 32.7483 137.747 32.4946 138.635 31.9872C139.544 31.4587 140.263 30.7081 140.791 29.7356C141.32 28.7419 141.584 27.5896 141.584 26.2788ZM160.72 15.2425V22.6318H168.775V25.0103H160.72V32.6215H169.726V35H157.834V12.864H169.726V15.2425H160.72ZM173.015 26.2471C173.015 24.4711 173.374 22.9172 174.093 21.5852C174.812 20.2321 175.795 19.1856 177.042 18.4456C178.311 17.7056 179.727 17.3356 181.292 17.3356C182.645 17.3356 183.903 17.6528 185.066 18.287C186.229 18.9001 187.117 19.7141 187.73 20.729V11.5321H190.647V35H187.73V31.7335C187.159 32.7695 186.313 33.6258 185.193 34.3023C184.072 34.9577 182.761 35.2854 181.26 35.2854C179.717 35.2854 178.311 34.9049 177.042 34.1437C175.795 33.3826 174.812 32.3149 174.093 30.9407C173.374 29.5664 173.015 28.0019 173.015 26.2471ZM187.73 26.2788C187.73 24.968 187.466 23.8263 186.937 22.8538C186.408 21.8812 185.69 21.1412 184.78 20.6338C183.893 20.1053 182.909 19.841 181.831 19.841C180.753 19.841 179.77 20.0947 178.882 20.6021C177.994 21.1095 177.286 21.8495 176.757 22.822C176.228 23.7946 175.964 24.9363 175.964 26.2471C175.964 27.5791 176.228 28.7419 176.757 29.7356C177.286 30.7081 177.994 31.4587 178.882 31.9872C179.77 32.4946 180.753 32.7483 181.831 32.7483C182.909 32.7483 183.893 32.4946 184.78 31.9872C185.69 31.4587 186.408 30.7081 186.937 29.7356C187.466 28.7419 187.73 27.5896 187.73 26.2788ZM197.015 14.7985C196.465 14.7985 196 14.6083 195.62 14.2277C195.239 13.8471 195.049 13.382 195.049 12.8323C195.049 12.2826 195.239 11.8175 195.62 11.4369C196 11.0564 196.465 10.8661 197.015 10.8661C197.543 10.8661 197.987 11.0564 198.347 11.4369C198.727 11.8175 198.918 12.2826 198.918 12.8323C198.918 13.382 198.727 13.8471 198.347 14.2277C197.987 14.6083 197.543 14.7985 197.015 14.7985ZM198.41 17.621V35H195.524V17.621H198.41ZM206.849 19.9995V30.243C206.849 31.0887 207.029 31.6912 207.388 32.0507C207.748 32.3889 208.371 32.5581 209.259 32.5581H211.384V35H208.784C207.177 35 205.972 34.63 205.168 33.89C204.365 33.15 203.963 31.9344 203.963 30.243V19.9995H201.711V17.621H203.963V13.2446H206.849V17.621H211.384V19.9995H206.849ZM216.371 14.7985C215.822 14.7985 215.356 14.6083 214.976 14.2277C214.595 13.8471 214.405 13.382 214.405 12.8323C214.405 12.2826 214.595 11.8175 214.976 11.4369C215.356 11.0564 215.822 10.8661 216.371 10.8661C216.9 10.8661 217.344 11.0564 217.703 11.4369C218.084 11.8175 218.274 12.2826 218.274 12.8323C218.274 13.382 218.084 13.8471 217.703 14.2277C217.344 14.6083 216.9 14.7985 216.371 14.7985ZM217.767 17.621V35H214.881V17.621H217.767ZM230.265 35.2854C228.637 35.2854 227.157 34.9154 225.825 34.1755C224.514 33.4355 223.478 32.3889 222.717 31.0358C221.977 29.6616 221.607 28.0759 221.607 26.2788C221.607 24.5029 221.988 22.9383 222.749 21.5852C223.531 20.211 224.588 19.1644 225.92 18.4456C227.252 17.7056 228.742 17.3356 230.392 17.3356C232.041 17.3356 233.531 17.7056 234.863 18.4456C236.195 19.1644 237.242 20.2004 238.003 21.5535C238.785 22.9066 239.176 24.4817 239.176 26.2788C239.176 28.0759 238.775 29.6616 237.971 31.0358C237.189 32.3889 236.121 33.4355 234.768 34.1755C233.415 34.9154 231.914 35.2854 230.265 35.2854ZM230.265 32.7483C231.301 32.7483 232.273 32.5052 233.182 32.0189C234.091 31.5327 234.821 30.8033 235.371 29.8307C235.941 28.8582 236.227 27.6742 236.227 26.2788C236.227 24.8834 235.952 23.6994 235.402 22.7269C234.853 21.7544 234.134 21.0355 233.246 20.5704C232.358 20.0841 231.396 19.841 230.36 19.841C229.303 19.841 228.33 20.0841 227.442 20.5704C226.575 21.0355 225.878 21.7544 225.349 22.7269C224.821 23.6994 224.556 24.8834 224.556 26.2788C224.556 27.6953 224.81 28.8899 225.317 29.8624C225.846 30.835 226.544 31.5644 227.411 32.0507C228.277 32.5158 229.229 32.7483 230.265 32.7483ZM251.438 17.3039C253.552 17.3039 255.265 17.9487 256.576 19.2384C257.887 20.507 258.542 22.3463 258.542 24.7566V35H255.688V25.1688C255.688 23.4352 255.254 22.1138 254.388 21.2047C253.521 20.2744 252.337 19.8093 250.836 19.8093C249.313 19.8093 248.098 20.285 247.189 21.2364C246.301 22.1878 245.857 23.5726 245.857 25.3908V35H242.971V17.621H245.857V20.0947C246.427 19.2067 247.199 18.5196 248.172 18.0333C249.165 17.547 250.254 17.3039 251.438 17.3039Z" fill="#198B93"/>
<rect y="21" width="70" height="3" fill="white"/>
<rect x="286" y="20" width="70" height="3" fill="white"/>
</svg>
